# xmcd CD database file
#
# Track frame offsets:
#	150
#	16490
#	33541
#	67759
#	83839
#	99656
#	119581
#	144493
#	159470
#
# Disc length: 2582 seconds
#
# Revision: 0
# Processed by: cddbd v1.5.2PL0 Copyright (c) Steve Scherf et al.
# Submitted via: CDex 1.51
#
DISCID=710a1409
DTITLE=Nat King Thomas and The Boogaloo Bandits - Nat King Thomas
DYEAR=2012
DGENRE=Blues
TTITLE0=Baby, lass uns tanzen
TTITLE1=Blues 2010
TTITLE2=Inder and Dönermann
TTITLE3=Hallo Cowboy
TTITLE4=Ich vermiss dich
TTITLE5=Party in der Provinz
TTITLE6=Rote Lippen
TTITLE7=Smash Hit
TTITLE8=Wenn Du mich küsst
EXTD=YEAR: 2012
EXTT0=
EXTT1=
EXTT2=
EXTT3=
EXTT4=
EXTT5=
EXTT6=
EXTT7=
EXTT8=
PLAYORDER=
